<svg width="80" height="81" viewBox="0 0 80 81" fill="none" xmlns="http://www.w3.org/2000/svg">
<g id="iconoir:bitcoin-circle">
<g id="Group">
<path id="Vector" d="M30 40.1445V54.7912C30 55.8979 30.8967 56.7912 32 56.7979C41.8867 56.8579 50 57.0512 50 48.4779C50 39.3312 40 40.1445 30 40.1445ZM30 40.1445V25.4979C30 24.3945 30.8967 23.4979 32 23.4912C41.8867 23.4312 50 23.2379 50 31.8112C50 40.9579 40 40.1445 30 40.1445Z" stroke="#FDA221" stroke-width="2.5"/>
<path id="Vector_2" d="M40 23.4779V18.4779M40 61.8112V56.8112M40 73.4779C21.59 73.4779 6.66669 58.5545 6.66669 40.1445C6.66669 21.7345 21.59 6.81119 40 6.81119C58.41 6.81119 73.3334 21.7345 73.3334 40.1445C73.3334 58.5545 58.41 73.4779 40 73.4779Z" stroke="#FDA221" stroke-width="2.5" stroke-linecap="round" stroke-linejoin="round"/>
</g>
</g>
</svg>
