<svg width="80" height="81" viewBox="0 0 80 81" fill="none" xmlns="http://www.w3.org/2000/svg">
<g id="iconoir:dogecoin-circle">
<g id="Group">
<path id="Vector" d="M33.3334 54.8179V25.4712C33.3334 24.3679 34.2267 23.4745 35.3334 23.4579C43.6334 23.3412 55 23.2178 55 40.1445C55 57.0712 43.6334 56.9512 35.3334 56.8312C34.8023 56.8259 34.2946 56.6117 33.9203 56.2349C33.546 55.8581 33.3351 55.349 33.3334 54.8179Z" stroke="#61D3DE" stroke-width="2.5"/>
<path id="Vector_2" d="M26.6667 40.1445H40M40 73.4779C21.59 73.4779 6.66669 58.5545 6.66669 40.1445C6.66669 21.7345 21.59 6.81119 40 6.81119C58.41 6.81119 73.3334 21.7345 73.3334 40.1445C73.3334 58.5545 58.41 73.4779 40 73.4779Z" stroke="#61D3DE" stroke-width="2.5" stroke-linecap="round" stroke-linejoin="round"/>
</g>
</g>
</svg>
