<svg width="3768" height="999" viewBox="0 0 3768 999" fill="none" xmlns="http://www.w3.org/2000/svg">
<g clip-path="url(#clip0_1_19)">
<path d="M44.2109 726C41.5443 726 40.2109 724.333 40.2109 721L42.2109 34C42.2109 31.3333 43.5443 30 46.2109 30H248.211C284.211 30 317.211 39 347.211 57C377.878 74.3333 402.211 98 420.211 128C438.211 157.333 447.211 190.667 447.211 228C447.211 252.667 443.544 275 436.211 295C428.878 314.333 420.211 331 410.211 345C400.211 358.333 391.211 368.333 383.211 375C419.211 415 437.211 462 437.211 516L438.211 721C438.211 724.333 436.544 726 433.211 726H320.211C317.544 726 316.211 725 316.211 723V516C316.211 492 307.544 471.333 290.211 454C273.544 436 252.878 427 228.211 427H162.211L161.211 721C161.211 724.333 159.878 726 157.211 726H44.2109ZM162.211 307H248.211C268.878 307 287.211 299.333 303.211 284C319.211 268.667 327.211 250 327.211 228C327.211 206.667 319.211 188.333 303.211 173C287.878 157.667 269.544 150 248.211 150H162.211V307ZM526.633 726C523.966 726 522.633 724.333 522.633 721L523.633 34C523.633 31.3333 524.966 30 527.633 30H848.633C851.299 30 852.633 31.6666 852.633 35V147C852.633 149.667 851.299 151 848.633 151H643.633V307H848.633C851.299 307 852.633 308.333 852.633 311L853.633 424C853.633 426.667 852.299 428 849.633 428H643.633V603H849.633C852.299 603 853.633 604.667 853.633 608V722C853.633 724.667 852.299 726 849.633 726H526.633ZM1054.55 726C1051.89 726 1050.22 724.333 1049.55 721L911.555 34C910.888 31.3333 912.221 30 915.555 30H1028.55C1031.22 30 1032.89 31.3333 1033.55 34L1115.55 492L1195.55 34C1196.22 31.3333 1197.89 30 1200.55 30H1312.55C1315.89 30 1317.22 31.3333 1316.55 34L1180.55 721C1179.89 724.333 1178.22 726 1175.55 726H1054.55ZM1380.17 726C1376.84 726 1375.17 724.333 1375.17 721L1376.17 34C1376.17 31.3333 1377.51 30 1380.17 30H1492.17C1494.84 30 1496.17 31.3333 1496.17 34L1497.17 721C1497.17 724.333 1495.84 726 1493.17 726H1380.17ZM1685.13 726C1682.47 726 1681.13 724.333 1681.13 721V151H1551.13C1547.8 151 1546.13 149.333 1546.13 146L1547.13 34C1547.13 31.3333 1548.47 30 1551.13 30H1931.13C1934.47 30 1936.13 31.3333 1936.13 34V146C1936.13 149.333 1934.8 151 1932.13 151H1801.13L1802.13 721C1802.13 724.333 1800.8 726 1798.13 726H1685.13ZM1905.63 721L2029.63 34C2030.29 31.3333 2031.96 30 2034.63 30H2179.63C2182.29 30 2183.96 31.3333 2184.63 34L2303.63 721C2304.29 724.333 2302.96 726 2299.63 726H2188.63C2185.96 726 2184.29 724.333 2183.63 721L2172.63 648H2036.63L2025.63 721C2024.96 724.333 2023.29 726 2020.63 726H1909.63C1906.96 726 1905.63 724.333 1905.63 721ZM2056.63 541H2152.63L2111.63 260L2105.63 223L2101.63 260L2056.63 541ZM2370.38 726C2367.72 726 2366.38 724.333 2366.38 721L2367.38 35C2367.38 31.6666 2369.05 30 2372.38 30H2483.38C2486.72 30 2488.38 31.6666 2488.38 35L2487.38 603H2693.38C2696.72 603 2698.38 604.667 2698.38 608V721C2698.38 724.333 2696.72 726 2693.38 726H2370.38ZM2768.84 726C2765.51 726 2763.84 724.333 2763.84 721L2764.84 34C2764.84 31.3333 2766.18 30 2768.84 30H2880.84C2883.51 30 2884.84 31.3333 2884.84 34L2885.84 721C2885.84 724.333 2884.51 726 2881.84 726H2768.84ZM2946.8 726C2943.47 726 2941.8 724.333 2941.8 721L2942.8 612L3187.8 144H2955.8C2953.14 144 2951.8 142.667 2951.8 140V35C2951.8 31.6666 2953.14 30 2955.8 30H3317.8C3321.14 30 3322.8 31.6666 3322.8 35V143L3078.8 609H3319.8C3322.47 609 3323.8 610.667 3323.8 614L3324.8 721C3324.8 724.333 3323.14 726 3319.8 726H2946.8ZM3391.87 726C3389.2 726 3387.87 724.333 3387.87 721L3388.87 34C3388.87 31.3333 3390.2 30 3392.87 30H3713.87C3716.53 30 3717.87 31.6666 3717.87 35V147C3717.87 149.667 3716.53 151 3713.87 151H3508.87V307H3713.87C3716.53 307 3717.87 308.333 3717.87 311L3718.87 424C3718.87 426.667 3717.53 428 3714.87 428H3508.87V603H3714.87C3717.53 603 3718.87 604.667 3718.87 608V722C3718.87 724.667 3717.53 726 3714.87 726H3391.87Z" fill="black"/>
<path d="M52.5352 816.211H64.5469L88.6875 859.98L113.18 816.211H125.777L93.7852 870.703V900H82.9453V870.703L52.5352 816.211ZM427.699 857.871C427.699 880.488 437.914 891.797 458.344 891.797C478.344 891.797 488.344 880.488 488.344 857.871C488.344 835.566 478.344 824.414 458.344 824.414C437.914 824.414 427.699 835.566 427.699 857.871ZM416.273 858.223C416.273 829.824 430.297 815.625 458.344 815.625C485.961 815.625 499.77 829.824 499.77 858.223C499.77 886.465 485.961 900.586 458.344 900.586C430.297 900.586 416.273 886.465 416.273 858.223ZM798.234 867.656V816.211H809.074V867.656C809.074 883.75 817.082 891.797 833.098 891.797C849.113 891.797 857.121 883.75 857.121 867.656V816.211H867.961V867.656C867.961 889.609 856.34 900.586 833.098 900.586C809.855 900.586 798.234 889.609 798.234 867.656ZM1169.3 900V816.211H1205.04C1220.98 816.211 1228.95 822.91 1228.95 836.309C1228.95 847.207 1221.15 855.273 1205.57 860.508L1234.34 900H1220.04L1193.38 862.324V855.234C1209.39 852.695 1217.4 846.543 1217.4 836.777C1217.4 829.043 1212.95 825.176 1204.04 825.176H1180.14V900H1169.3ZM1839.12 900V816.211H1849.96V853.125H1899.47V816.211H1910.31V900H1899.47V861.914H1849.96V900H1839.12ZM2267.07 816.211V825H2223.13V853.125H2265.02V861.914H2223.13V891.211H2267.95V900H2212.29V816.211H2267.07ZM2569.11 900H2557.86L2593.43 816.211H2605.44L2641.18 900H2629.17L2618.33 873.633H2590.62L2593.61 864.844H2614.7L2599.05 826.875L2569.11 900ZM2945.45 816.211V891.211H2989.28V900H2934.61V816.211H2945.45ZM3340.77 816.211V825H3314.4V900H3303.56V825H3277.2V816.211H3340.77ZM3635.72 900V816.211H3646.56V853.125H3696.07V816.211H3706.91V900H3696.07V861.914H3646.56V900H3635.72Z" fill="black"/>
</g>
<defs>
<clipPath id="clip0_1_19">
<rect width="3768" height="999" fill="white"/>
</clipPath>
</defs>
</svg>
