<svg width="1352" height="149" viewBox="0 0 1352 149" fill="none" xmlns="http://www.w3.org/2000/svg">
<path d="M108.229 95.5078L127.174 100.293C123.202 115.853 116.041 127.734 105.689 135.938C95.403 144.076 82.8053 148.145 67.8965 148.145C52.4668 148.145 39.9017 145.02 30.2012 138.77C20.5658 132.454 13.209 123.34 8.13086 111.426C3.11784 99.5117 0.611328 86.7188 0.611328 73.0469C0.611328 58.138 3.44336 45.1497 9.10742 34.082C14.8366 22.9492 22.9421 14.5182 33.4238 8.78906C43.9707 2.99479 55.5592 0.0976562 68.1895 0.0976562C82.5124 0.0976562 94.5566 3.74349 104.322 11.0352C114.088 18.3268 120.891 28.5807 124.732 41.7969L106.08 46.1914C102.76 35.7747 97.9421 28.1901 91.627 23.4375C85.3118 18.6849 77.3691 16.3086 67.7988 16.3086C56.7962 16.3086 47.584 18.9453 40.1621 24.2188C32.8053 29.4922 27.6296 36.5885 24.6348 45.5078C21.64 54.362 20.1426 63.5091 20.1426 72.9492C20.1426 85.1237 21.9004 95.7682 25.416 104.883C28.9967 113.932 34.5306 120.703 42.0176 125.195C49.5046 129.688 57.61 131.934 66.334 131.934C76.946 131.934 85.9303 128.874 93.2871 122.754C100.644 116.634 105.624 107.552 108.229 95.5078Z" fill="white"/>
<path d="M156.904 145.703V2.53906H220.381C233.141 2.53906 242.842 3.84115 249.482 6.44531C256.123 8.98438 261.429 13.5091 265.4 20.0195C269.372 26.5299 271.357 33.724 271.357 41.6016C271.357 51.7578 268.07 60.319 261.494 67.2852C254.919 74.2513 244.762 78.6784 231.025 80.5664C236.038 82.9753 239.847 85.3516 242.451 87.6953C247.985 92.7734 253.226 99.1211 258.174 106.738L283.076 145.703H259.248L240.303 115.918C234.769 107.324 230.212 100.749 226.631 96.1914C223.05 91.6341 219.827 88.444 216.963 86.6211C214.163 84.7982 211.299 83.5286 208.369 82.8125C206.221 82.3568 202.705 82.1289 197.822 82.1289H175.85V145.703H156.904ZM175.85 65.7227H216.572C225.231 65.7227 232.002 64.8438 236.885 63.0859C241.768 61.263 245.479 58.3984 248.018 54.4922C250.557 50.5208 251.826 46.224 251.826 41.6016C251.826 34.8307 249.352 29.2643 244.404 24.9023C239.521 20.5404 231.774 18.3594 221.162 18.3594H175.85V65.7227Z" fill="white"/>
<path d="M343.764 145.703V85.0586L288.588 2.53906H311.635L339.857 45.7031C345.066 53.776 349.916 61.849 354.408 69.9219C358.705 62.4349 363.913 54.0039 370.033 44.6289L397.768 2.53906H419.838L362.709 85.0586V145.703H343.764Z" fill="white"/>
<path d="M442.83 145.703V2.53906H496.834C506.339 2.53906 513.598 2.99479 518.611 3.90625C525.643 5.07812 531.535 7.32422 536.287 10.6445C541.04 13.8997 544.848 18.4896 547.713 24.4141C550.643 30.3385 552.107 36.849 552.107 43.9453C552.107 56.1198 548.234 66.4388 540.486 74.9023C532.739 83.3008 518.742 87.5 498.494 87.5H461.775V145.703H442.83ZM461.775 70.6055H498.787C511.027 70.6055 519.718 68.3268 524.861 63.7695C530.005 59.2122 532.576 52.7995 532.576 44.5312C532.576 38.5417 531.046 33.431 527.986 29.1992C524.992 24.9023 521.02 22.0703 516.072 20.7031C512.882 19.8568 506.99 19.4336 498.396 19.4336H461.775V70.6055Z" fill="white"/>
<path d="M618.654 145.703V19.4336H571.486V2.53906H684.963V19.4336H637.6V145.703H618.654Z" fill="white"/>
<path d="M701.021 75.9766C701.021 52.2135 707.402 33.6263 720.162 20.2148C732.923 6.73828 749.394 0 769.576 0C782.792 0 794.706 3.15755 805.318 9.47266C815.93 15.7878 824.003 24.6094 829.537 35.9375C835.136 47.2005 837.936 59.9935 837.936 74.3164C837.936 88.8346 835.006 101.823 829.146 113.281C823.287 124.74 814.986 133.431 804.244 139.355C793.502 145.215 781.913 148.145 769.479 148.145C756.002 148.145 743.958 144.889 733.346 138.379C722.734 131.868 714.693 122.982 709.225 111.719C703.756 100.456 701.021 88.5417 701.021 75.9766ZM720.553 76.2695C720.553 93.5221 725.175 107.129 734.42 117.09C743.73 126.986 755.383 131.934 769.381 131.934C783.639 131.934 795.357 126.921 804.537 116.895C813.782 106.868 818.404 92.6432 818.404 74.2188C818.404 62.5651 816.419 52.4089 812.447 43.75C808.541 35.026 802.779 28.2878 795.162 23.5352C787.61 18.7174 779.114 16.3086 769.674 16.3086C756.262 16.3086 744.706 20.931 735.006 30.1758C725.37 39.3555 720.553 54.7201 720.553 76.2695Z" fill="white"/>
<path d="M929.525 145.703V2.53906H958.041L991.928 103.906C995.053 113.346 997.331 120.41 998.764 125.098C1000.39 119.889 1002.93 112.24 1006.38 102.148L1040.66 2.53906H1066.15V145.703H1047.88V25.8789L1006.28 145.703H989.193L947.787 23.8281V145.703H929.525Z" fill="white"/>
<path d="M1086.99 145.703L1141.97 2.53906H1162.38L1220.97 145.703H1199.39L1182.69 102.344H1122.83L1107.11 145.703H1086.99ZM1128.3 86.9141H1176.83L1161.89 47.2656C1157.34 35.2214 1153.95 25.3255 1151.74 17.5781C1149.91 26.7578 1147.34 35.8724 1144.02 44.9219L1128.3 86.9141Z" fill="white"/>
<path d="M1242.11 145.703V2.53906H1296.12C1305.62 2.53906 1312.88 2.99479 1317.89 3.90625C1324.92 5.07812 1330.82 7.32422 1335.57 10.6445C1340.32 13.8997 1344.13 18.4896 1346.99 24.4141C1349.92 30.3385 1351.39 36.849 1351.39 43.9453C1351.39 56.1198 1347.51 66.4388 1339.77 74.9023C1332.02 83.3008 1318.02 87.5 1297.78 87.5H1261.06V145.703H1242.11ZM1261.06 70.6055H1298.07C1310.31 70.6055 1319 68.3268 1324.14 63.7695C1329.29 59.2122 1331.86 52.7995 1331.86 44.5312C1331.86 38.5417 1330.33 33.431 1327.27 29.1992C1324.27 24.9023 1320.3 22.0703 1315.35 20.7031C1312.16 19.8568 1306.27 19.4336 1297.68 19.4336H1261.06V70.6055Z" fill="white"/>
</svg>
